# xmcd CD database file
#
# Track frame offsets:
#	150
#	7683
#	14567
#	23614
#	29146
#	44157
#	53898
#	65738
#	74640
#	86012
#	95887
#	116206
#	125647
#	132545
#	146532
#	155822
#	171806
#	182396
#
# Disc length: 2505 seconds
#
# Revision: 0
# Processed by: cddbd v1.5.2PL0 Copyright (c) Steve Scherf et al.
# Submitted via: CDex 1.51
#
DISCID=1209c712
DTITLE=Pearse,John - The Lost 1966 Waldeck Audition
DYEAR=2010
DGENRE=Blues
TTITLE0=Beacon On The Hill
TTITLE1=Billbury Town
TTITLE2=Candy Man
TTITLE3=Cattle Smack
TTITLE4=Cocaine
TTITLE5=Fair And Tender Ladies
TTITLE6=Fix Me A Pallet On Your Floor
TTITLE7=Goin' Back To Georgia
TTITLE8=(I`m) Satisfied
TTITLE9=Johnny Was A Shoemaker
TTITLE10=Lady Of Carlisle
TTITLE11=Blow Away The Morning Dew
TTITLE12=Rapatatap
TTITLE13=Richland Woman Blues
TTITLE14=Seaport Town
TTITLE15=The Squire And The Chamber Maid
TTITLE16=Trouble In Mind
TTITLE17=Wilson Rag
EXTD=YEAR: 2010
EXTT0=
EXTT1=
EXTT2=
EXTT3=
EXTT4=
EXTT5=
EXTT6=
EXTT7=
EXTT8=
EXTT9=
EXTT10=
EXTT11=
EXTT12=
EXTT13=
EXTT14=
EXTT15=
EXTT16=
EXTT17=
PLAYORDER=
